<svg version="1" xmlns="http://www.w3.org/2000/svg" width="1280" height="1280" viewBox="0 0 960.000000 960.000000"><path d="M130 89.1c-17.1 1.9-33.6 6.7-49.5 14.4-16.1 7.7-28.4 16.3-40.5 28.5-21.3 21.2-33.9 45.6-38.5 74-2.2 14.1-2.3 361.9 0 376.8 3.9 25.7 13.6 46.7 31 67.1 18.5 21.7 43.2 37.2 72.4 45.7 18 5.2 23.1 5.6 77.6 6.3l51 .6 29.2 67.5c39.1 90.6 37.5 87 43.9 93 7.6 6.9 14.5 9.4 25.9 9.5 8.1 0 9.7-.3 16-3.3 13.7-6.5 11.9-3.3 49.5-90.1l33.4-77.1h190.1c109.6 0 195.1-.4 202.1-1 21.5-1.7 39.5-6.5 57.6-15.5 18.3-9.1 33.8-21.1 46.3-35.6 17.4-20.4 27.1-41.4 31-67.1 2.3-14.9 2.2-362.7 0-376.8-4.6-28.5-17.2-52.8-38.5-74-11.3-11.2-20.3-18-34-25.3-17.4-9.3-37.2-15.5-56.8-17.6-12.4-1.3-687.4-1.3-699.2 0zm301.6 172.4c63.7 37.2 138.1 80.6 165.1 96.3 27.1 15.8 49.1 29.1 49 29.6-.2.6-293.6 172.5-327.4 191.8l-5.3 3V387.5c0-162.3.2-194.6 1.3-194.2.8.3 53.5 31 117.3 68.2z"/></svg>