<?xml version="1.0" standalone="no"?><!-- Generator: Gravit.io --><svg xmlns="http://www.w3.org/2000/svg" xmlns:xlink="http://www.w3.org/1999/xlink" style="isolation:isolate" viewBox="646.474 374.25 479.5 391.75" width="479.5" height="391.75"><defs><clipPath id="_clipPath_5MYk1l824R6FS4bOVteIN01ZNU0KKAlf"><rect x="646.474" y="374.25" width="479.5" height="391.75"/></clipPath></defs><g clip-path="url(#_clipPath_5MYk1l824R6FS4bOVteIN01ZNU0KKAlf)"><path d=" M 720.244 374.25 C 679.763 374.25 646.474 404.877 646.474 442.31 L 646.474 612.46 C 646.474 649.808 679.763 680.52 720.244 680.52 L 762.901 680.52 L 795.175 754.96 C 797.88 761.602 804.765 766 812.455 766 C 820.145 766 827.03 761.602 829.736 754.96 L 862.028 680.52 L 1052.205 680.52 C 1092.686 680.52 1125.974 649.808 1125.974 612.46 L 1125.974 442.31 C 1125.974 404.877 1092.686 374.25 1052.205 374.25 L 720.244 374.25 Z  M 683.359 612.46" fill="rgb(255,255,255)"/><clipPath id="_clipPath_5Jk73d9SQiTR4durCEuqfoIxTWGmjREW"><path d=" M 720.244 374.25 C 679.763 374.25 646.474 404.877 646.474 442.31 L 646.474 612.46 C 646.474 649.808 679.763 680.52 720.244 680.52 L 762.901 680.52 L 795.175 754.96 C 797.88 761.602 804.765 766 812.455 766 C 820.145 766 827.03 761.602 829.736 754.96 L 862.028 680.52 L 1052.205 680.52 C 1092.686 680.52 1125.974 649.808 1125.974 612.46 L 1125.974 442.31 C 1125.974 404.877 1092.686 374.25 1052.205 374.25 L 720.244 374.25 Z  M 683.359 612.46" fill="rgb(255,255,255)"/></clipPath><g clip-path="url(#_clipPath_5Jk73d9SQiTR4durCEuqfoIxTWGmjREW)"><g><path d=" M 1152.459 704.214 C 1146.9 733.337 1123.425 755.694 1094.065 759.827 C 1048.184 766.779 971.716 775.148 885.515 775.148 C 815.725 774.965 746.034 769.845 676.966 759.827 C 647.606 755.694 624.131 733.337 618.572 704.214 C 612.996 672.292 607.449 624.993 607.449 566.599 C 607.449 508.205 612.983 460.906 618.572 428.984 C 624.131 399.86 647.606 377.503 676.966 373.37 C 722.847 366.419 799.315 358.049 885.515 358.049 C 971.716 358.049 1046.822 366.419 1094.065 373.37 C 1123.425 377.503 1146.9 399.86 1152.459 428.984 C 1158.048 460.906 1165 508.219 1165 566.599 C 1163.582 624.993 1158.048 672.292 1152.445 704.214 L 1152.459 704.214 Z " fill="rgb(255,61,0)"/><path d=" M 802.805 620.922 L 802.805 426.275 L 969.644 523.599 L 802.805 620.922 Z " fill="rgb(255,255,255)"/></g></g></g></svg>